<?xml version="1.0" encoding="UTF-8" standalone="no"?>
<!-- Created with Inkscape (http://www.inkscape.org/) -->

<svg
   xmlns:dc="http://purl.org/dc/elements/1.1/"
   xmlns:cc="http://creativecommons.org/ns#"
   xmlns:rdf="http://www.w3.org/1999/02/22-rdf-syntax-ns#"
   xmlns:svg="http://www.w3.org/2000/svg"
   xmlns="http://www.w3.org/2000/svg"
   xmlns:sodipodi="http://sodipodi.sourceforge.net/DTD/sodipodi-0.dtd"
   xmlns:inkscape="http://www.inkscape.org/namespaces/inkscape"
   width="80mm"
   height="80mm"
   viewBox="0 0 283.46456 283.46457"
   id="svg5150"
   version="1.1"
   inkscape:version="0.91 r13725"
   sodipodi:docname="LOGOtextbook.svg">
  <defs
     id="defs5152" />
  <sodipodi:namedview
     id="base"
     pagecolor="#ffffff"
     bordercolor="#666666"
     borderopacity="1.0"
     inkscape:pageopacity="0.0"
     inkscape:pageshadow="2"
     inkscape:zoom="0.7"
     inkscape:cx="64.144518"
     inkscape:cy="423.81618"
     inkscape:document-units="px"
     inkscape:current-layer="layer1"
     showgrid="false"
     inkscape:window-width="1366"
     inkscape:window-height="746"
     inkscape:window-x="-8"
     inkscape:window-y="-8"
     inkscape:window-maximized="1"
     borderlayer="true" />
  <metadata
     id="metadata5155">
    <rdf:RDF>
      <cc:Work
         rdf:about="">
        <dc:format>image/svg+xml</dc:format>
        <dc:type
           rdf:resource="http://purl.org/dc/dcmitype/StillImage" />
        <dc:title></dc:title>
      </cc:Work>
    </rdf:RDF>
  </metadata>
  <g
     inkscape:label="Laag 1"
     inkscape:groupmode="layer"
     id="layer1"
     transform="translate(0,-768.89764)">
    <circle
       style="fill:#faf5df;fill-opacity:1;fill-rule:nonzero;stroke:none;stroke-width:1.56700003;stroke-linecap:square;stroke-linejoin:round;stroke-miterlimit:6.9000001;stroke-dasharray:none;stroke-opacity:1"
       id="path5880"
       cx="919.5498"
       cy="-129.25874"
       r="124.24876"
       transform="matrix(0.01556227,0.9998789,-0.9998789,0.01556227,0,0)"
       inkscape:export-filename="E:\LogoTextbook.png"
       inkscape:export-xdpi="90"
       inkscape:export-ydpi="90" />
    <g
       id="g7391"
       transform="matrix(1.1880153,0,0,0.99976856,-282.40339,434.39758)"
       inkscape:export-filename="E:\LogoTextbook.png"
       inkscape:export-xdpi="90"
       inkscape:export-ydpi="90">
      <path
         inkscape:connector-curvature="0"
         id="path7332"
         d="m 277.5541,404.52619 160.34994,-1.055 0.36862,-0.5275"
         style="fill:#c8beb7;fill-rule:evenodd;stroke:#939393;stroke-width:0.87305802px;stroke-linecap:butt;stroke-linejoin:miter;stroke-opacity:1" />
      <path
         inkscape:connector-curvature="0"
         id="path7332-6"
         d="m 278.61765,563.60488 159.29014,-1.05591 0.36618,-0.52796"
         style="fill:#c8beb7;fill-rule:evenodd;stroke:#939393;stroke-width:0.87054455px;stroke-linecap:butt;stroke-linejoin:miter;stroke-opacity:1" />
      <path
         inkscape:connector-curvature="0"
         id="path7332-0"
         d="m 264.56941,537.07658 187.48313,-1.0331 0.43099,-0.51655"
         style="fill:#c8beb7;fill-rule:evenodd;stroke:#939393;stroke-width:0.9341895px;stroke-linecap:butt;stroke-linejoin:miter;stroke-opacity:1" />
      <path
         inkscape:connector-curvature="0"
         id="path7332-1"
         d="m 256.90628,510.55559 203.59514,-1.02125 0.46804,-0.51064"
         style="fill:#c8beb7;fill-rule:evenodd;stroke:#939393;stroke-width:0.96790785px;stroke-linecap:butt;stroke-linejoin:miter;stroke-opacity:1" />
      <path
         inkscape:connector-curvature="0"
         id="path7332-8"
         d="m 264.1437,431.02407 188.33112,-1.03245 0.43293,-0.51624"
         style="fill:#c8beb7;fill-rule:evenodd;stroke:#939393;stroke-width:0.93600821px;stroke-linecap:butt;stroke-linejoin:miter;stroke-opacity:1" />
      <path
         inkscape:connector-curvature="0"
         id="path7332-7"
         d="m 255.6303,457.52915 204.44316,-1.02064 0.46998,-0.51034"
         style="fill:#c8beb7;fill-rule:evenodd;stroke:#939393;stroke-width:0.96963489px;stroke-linecap:butt;stroke-linejoin:miter;stroke-opacity:1" />
      <path
         inkscape:connector-curvature="0"
         id="path7332-68"
         d="m 253.50141,484.0398 209.31939,-1.01723 0.48119,-0.50862"
         style="fill:#c8beb7;fill-rule:evenodd;stroke:#939393;stroke-width:0.97948432px;stroke-linecap:butt;stroke-linejoin:miter;stroke-opacity:1" />
      <path
         inkscape:connector-curvature="0"
         id="path7332-72"
         d="m 302.45766,378.04637 109.48801,-1.1049 0.2517,-0.55244"
         style="fill:#c8beb7;fill-rule:evenodd;stroke:#939393;stroke-width:0.73829037px;stroke-linecap:butt;stroke-linejoin:miter;stroke-opacity:1" />
      <path
         inkscape:connector-curvature="0"
         id="path7332-01"
         d="m 304.265,590.15092 108.85243,-1.10562 0.25023,-0.55281"
         style="fill:#c8beb7;fill-rule:evenodd;stroke:#939393;stroke-width:0.73638535px;stroke-linecap:butt;stroke-linejoin:miter;stroke-opacity:1" />
    </g>
    <path
       d="m 117.77591,991.84377 -40.09112,0 0,-128.99886 40.09112,0 0,128.99886 z"
       style="fill:#ffa91b;fill-opacity:1;fill-rule:nonzero;stroke:none"
       id="path738"
       inkscape:connector-curvature="0"
       inkscape:export-filename="E:\LogoTextbook.png"
       inkscape:export-xdpi="90"
       inkscape:export-ydpi="90" />
    <path
       d="m 97.70246,991.84377 20.07452,0 0,-128.99886 -20.07452,0 0,128.99886 z"
       style="fill:#ffc52d;fill-opacity:1;fill-rule:nonzero;stroke:none"
       id="path740"
       inkscape:connector-curvature="0"
       inkscape:export-filename="E:\LogoTextbook.png"
       inkscape:export-xdpi="90"
       inkscape:export-ydpi="90" />
    <g
       id="g5758"
       transform="matrix(0.02540373,-0.8607134,0.80685929,0.0764828,-218.95565,1178.2796)"
       inkscape:export-filename="E:\LogoTextbook.png"
       inkscape:export-xdpi="90"
       inkscape:export-ydpi="90">
      <g
         transform="matrix(1.0728155,0,0,-1.0433221,426.87726,478.03491)"
         id="g758">
        <path
           inkscape:connector-curvature="0"
           id="path760"
           style="fill:#f23130;fill-opacity:1;fill-rule:nonzero;stroke:none"
           d="m 0,0 -15.894,-1.581 -15.914,159.955 15.896,1.581 L 0,0 Z" />
      </g>
      <g
         transform="matrix(1.0728155,0,0,-1.0433221,401.4413,311.97547)"
         id="g762">
        <path
           inkscape:connector-curvature="0"
           id="path764"
           style="fill:#ce0f0f;fill-opacity:1;fill-rule:nonzero;stroke:none"
           d="m 0,0 15.912,-159.956 7.959,0.792 L 7.959,0.791 0,0 Z" />
      </g>
      <g
         transform="matrix(1.0728155,0,0,-1.0433221,423.7149,445.23182)"
         id="g766">
        <path
           inkscape:connector-curvature="0"
           id="path768"
           style="fill:#183a4a;fill-opacity:1;fill-rule:nonzero;stroke:none"
           d="M 0,0 -15.896,-1.581 -25.229,92.232 -9.333,93.813 0,0 Z" />
      </g>
      <g
         transform="matrix(1.0728155,0,0,-1.0433221,410.55877,318.83959)"
         id="g770">
        <path
           inkscape:connector-curvature="0"
           id="path772"
           style="fill:#183a4a;fill-opacity:1;fill-rule:nonzero;stroke:none"
           d="M 0,0 -15.896,-1.581 -16.597,5.46 -0.701,7.041 0,0 Z" />
      </g>
      <g
         transform="matrix(1.0728155,0,0,-1.0433221,426.59458,475.79991)"
         id="g774">
        <path
           inkscape:connector-curvature="0"
           id="path776"
           style="fill:#183a4a;fill-opacity:1;fill-rule:nonzero;stroke:none"
           d="M 0,0 -15.896,-1.581 -16.596,5.46 -0.701,7.041 0,0 Z" />
      </g>
    </g>
    <path
       d="m 117.77591,914.1185 -40.09112,0 0,-26.79664 40.09112,0 0,26.79664 z"
       style="fill:#ce0f0f;fill-opacity:1;fill-rule:nonzero;stroke:none"
       id="path778"
       inkscape:connector-curvature="0"
       inkscape:export-filename="E:\LogoTextbook.png"
       inkscape:export-xdpi="90"
       inkscape:export-ydpi="90" />
    <path
       d="m 117.77591,959.27689 -40.09112,0 0,-26.79664 40.09112,0 0,26.79664 z"
       style="fill:#ce0f0f;fill-opacity:1;fill-rule:nonzero;stroke:none"
       id="path780"
       inkscape:connector-curvature="0"
       inkscape:export-filename="E:\LogoTextbook.png"
       inkscape:export-xdpi="90"
       inkscape:export-ydpi="90" />
    <path
       d="m 117.77591,875.19885 -40.09112,0 0,-7.3582 40.09112,0 0,7.3582 z"
       style="fill:#ce0f0f;fill-opacity:1;fill-rule:nonzero;stroke:none"
       id="path782"
       inkscape:connector-curvature="0"
       inkscape:export-filename="E:\LogoTextbook.png"
       inkscape:export-xdpi="90"
       inkscape:export-ydpi="90" />
    <path
       d="m 117.77591,985.16694 -40.09112,0 0,-7.3582 40.09112,0 0,7.3582 z"
       style="fill:#ce0f0f;fill-opacity:1;fill-rule:nonzero;stroke:none"
       id="path784"
       inkscape:connector-curvature="0"
       inkscape:export-filename="E:\LogoTextbook.png"
       inkscape:export-xdpi="90"
       inkscape:export-ydpi="90" />
    <g
       id="g674"
       transform="matrix(0.76345491,0,0,-0.74246633,235.61315,988.95074)"
       inkscape:export-filename="E:\LogoTextbook.png"
       inkscape:export-xdpi="90"
       inkscape:export-ydpi="90">
      <path
         d="m 0,0 -4.924,0 -128.171,0 c -9.19,0 -16.64,9.652 -16.64,21.562 0,11.908 7.45,21.562 16.64,21.562 l 128.171,0 4.926,0 3.396,4.619 -136.493,0 c -11.142,0 -20.207,-11.746 -20.207,-26.181 0,-14.437 9.065,-26.182 20.207,-26.182 l 128.171,0 L 3.432,-4.668 0,0 Z"
         style="fill:#310000;fill-opacity:1;fill-rule:nonzero;stroke:none"
         id="path676"
         inkscape:connector-curvature="0" />
    </g>
    <g
       id="g678"
       transform="matrix(0.76345491,0,0,-0.74246633,230.87141,972.94205)"
       inkscape:export-filename="E:\LogoTextbook.png"
       inkscape:export-xdpi="90"
       inkscape:export-ydpi="90">
      <path
         d="m 0,0 c 0,12.645 3.746,18.192 3.869,18.375 l 2.344,3.187 -4.926,0 -128.171,0 c -9.19,0 -16.64,-9.654 -16.64,-21.562 0,-11.909 7.45,-21.562 16.64,-21.562 l 128.171,0 4.924,0 -2.307,3.139 C 3.746,-18.193 0,-12.644 0,0"
         style="fill:#f4ebe6;fill-opacity:1;fill-rule:nonzero;stroke:none"
         id="path680"
         inkscape:connector-curvature="0" />
    </g>
    <g
       id="g682"
       transform="matrix(0.76345491,0,0,-0.74246633,230.87141,972.94205)"
       inkscape:export-filename="E:\LogoTextbook.png"
       inkscape:export-xdpi="90"
       inkscape:export-ydpi="90">
      <path
         d="m 0,0 c 0,0.025 0.002,0.047 0.002,0.072 l -143.526,0 0,-0.072 c 0,-11.909 7.45,-21.562 16.64,-21.562 l 133.095,0 -2.307,3.139 C 3.746,-18.193 0,-12.644 0,0"
         style="fill:#ffffff;fill-opacity:1;fill-rule:nonzero;stroke:none"
         id="path684"
         inkscape:connector-curvature="0" />
    </g>
    <g
       id="g686"
       transform="matrix(0.76345491,0,0,-0.74246633,123.91543,972.94205)"
       inkscape:export-filename="E:\LogoTextbook.png"
       inkscape:export-xdpi="90"
       inkscape:export-ydpi="90">
      <path
         d="m 0,0 c 0,11.908 7.452,21.562 16.643,21.562 l -3.432,0 C 4.021,21.562 -3.43,11.908 -3.43,0 c 0,-11.909 7.451,-21.562 16.641,-21.562 l 3.432,0 C 7.452,-21.562 0,-11.909 0,0"
         style="fill:#dacdc4;fill-opacity:1;fill-rule:nonzero;stroke:none"
         id="path688"
         inkscape:connector-curvature="0" />
    </g>
    <g
       id="g690"
       transform="matrix(0.76345491,0,0,-0.74246633,213.36445,935.91079)"
       inkscape:export-filename="E:\LogoTextbook.png"
       inkscape:export-xdpi="90"
       inkscape:export-ydpi="90">
      <path
         d="M 0,0 -4.924,0 -97.44,0 c -9.19,0 -16.641,7.45 -16.641,16.641 0,9.191 7.451,16.642 16.641,16.642 l 92.516,0 4.926,0 3.396,3.565 -100.838,0 c -11.142,0 -20.207,-9.065 -20.207,-20.207 0,-11.142 9.065,-20.206 20.207,-20.206 l 92.516,0 L 3.432,-3.603 0,0 Z"
         style="fill:#ec0000;fill-opacity:1;fill-rule:nonzero;stroke:none"
         id="path692"
         inkscape:connector-curvature="0" />
    </g>
    <g
       id="g694"
       transform="matrix(0.76345491,0,0,-0.74246633,208.62271,923.55496)"
       inkscape:export-filename="E:\LogoTextbook.png"
       inkscape:export-xdpi="90"
       inkscape:export-ydpi="90">
      <path
         d="m 0,0 c 0,9.759 3.746,14.042 3.869,14.181 l 2.344,2.461 -4.926,0 -92.516,0 c -9.19,0 -16.641,-7.452 -16.641,-16.643 0,-9.19 7.451,-16.641 16.641,-16.641 l 92.516,0 4.924,0 -2.307,2.423 C 3.746,-14.042 0,-9.759 0,0"
         style="fill:#f4ebe6;fill-opacity:1;fill-rule:nonzero;stroke:none"
         id="path696"
         inkscape:connector-curvature="0" />
    </g>
    <g
       id="g698"
       transform="matrix(0.76345491,0,0,-0.74246633,208.62271,923.55496)"
       inkscape:export-filename="E:\LogoTextbook.png"
       inkscape:export-xdpi="90"
       inkscape:export-ydpi="90">
      <path
         d="m 0,0 c 0,0.019 0.002,0.036 0.002,0.056 l -107.872,0 0,-0.057 c 0,-9.19 7.451,-16.641 16.641,-16.641 l 97.44,0 -2.307,2.423 C 3.746,-14.042 0,-9.759 0,0"
         style="fill:#ffffff;fill-opacity:1;fill-rule:nonzero;stroke:none"
         id="path700"
         inkscape:connector-curvature="0" />
    </g>
    <g
       id="g702"
       transform="matrix(0.76345491,0,0,-0.74246633,128.88756,923.55571)"
       inkscape:export-filename="E:\LogoTextbook.png"
       inkscape:export-xdpi="90"
       inkscape:export-ydpi="90">
      <path
         d="m 0,0 c 0,9.191 7.452,16.643 16.642,16.643 l -3.431,0 C 4.02,16.643 -3.43,9.191 -3.43,0 c 0,-9.19 7.45,-16.641 16.641,-16.641 l 3.431,0 C 7.452,-16.641 0,-9.19 0,0"
         style="fill:#dacdc4;fill-opacity:1;fill-rule:nonzero;stroke:none"
         id="path704"
         inkscape:connector-curvature="0" />
    </g>
    <g
       id="g722"
       transform="matrix(0.76345491,0,0,-0.74246633,138.9054,951.09362)"
       inkscape:export-filename="E:\LogoTextbook.png"
       inkscape:export-xdpi="90"
       inkscape:export-ydpi="90">
      <path
         d="M 0,0 C 0.623,0.028 1.242,0.197 1.8,0.523 2.645,1.018 3.46,2.01 3.697,3.054 4.345,3.936 4.912,4.846 5.19,5.952 5.34,6.548 5.298,7.16 5.093,7.708 c 0.192,0.507 0.29,1.053 0.362,1.655 0.194,1.621 -1.014,3.569 -2.475,4.244 -0.887,0.411 -1.52,0.715 -2.519,0.715 -0.334,0 -0.609,-0.04 -0.871,-0.096 -0.99,1.285 -2.224,2.377 -3.629,3.198 0.502,0.075 1.012,0.126 1.534,0.126 l 86.417,0 c 5.742,0 10.399,-4.655 10.399,-10.399 0,-5.743 -4.657,-10.398 -10.399,-10.398 l -86.417,0 c -0.216,0 -0.426,0.019 -0.638,0.032 C -1.909,-2.345 -0.85,-1.247 0,0"
         style="fill:#00b3b1;fill-opacity:1;fill-rule:nonzero;stroke:none"
         id="path724"
         inkscape:connector-curvature="0" />
    </g>
    <g
       id="g726"
       transform="matrix(0.76345491,0,0,-0.74246633,140.54041,946.03127)"
       inkscape:export-filename="E:\LogoTextbook.png"
       inkscape:export-xdpi="90"
       inkscape:export-ydpi="90">
      <path
         d="m 0,0 c 0,2.869 -1.031,5.53 -2.73,7.64 l 83.1,0 c 4.506,0 8.171,-3.279 8.171,-7.307 0,-4.028 -3.665,-7.307 -8.171,-7.307 l -82.6,0 C -0.832,-4.981 0,-2.575 0,0"
         style="fill:#ffffff;fill-opacity:1;fill-rule:nonzero;stroke:none"
         id="path728"
         inkscape:connector-curvature="0" />
    </g>
    <g
       id="g730"
       transform="matrix(0.76345491,0,0,-0.74246633,138.45588,940.35904)"
       inkscape:export-filename="E:\LogoTextbook.png"
       inkscape:export-xdpi="90"
       inkscape:export-ydpi="90">
      <path
         d="m 0,0 83.1,0 c 4.381,0 7.956,-3.101 8.153,-6.974 l -88.557,0 C 2.55,-4.36 1.566,-1.944 0,0"
         style="fill:#f4ebe6;fill-opacity:1;fill-rule:nonzero;stroke:none"
         id="path732"
         inkscape:connector-curvature="0" />
    </g>
    <g
       id="g734"
       transform="matrix(0.76345491,0,0,-0.74246633,204.39479,945.77964)"
       inkscape:export-filename="E:\LogoTextbook.png"
       inkscape:export-xdpi="90"
       inkscape:export-ydpi="90">
      <path
         d="m 0,0 c 0,3.072 -1.7,5.801 -4.192,7.301 l 0.923,0 c 4.506,0 8.171,-3.279 8.171,-7.307 0,-4.028 -3.665,-7.306 -8.171,-7.306 l -0.942,0 C -1.709,-5.814 0,-3.08 0,0"
         style="fill:#dacdc4;fill-opacity:1;fill-rule:nonzero;stroke:none"
         id="path736"
         inkscape:connector-curvature="0" />
    </g>
  </g>
</svg>
